<svg width="22" height="22" viewBox="0 0 22 22" fill="none" xmlns="http://www.w3.org/2000/svg">
<path d="M9.94223 6.95264C9.74701 6.83669 9.52456 6.7745 9.29751 6.77241C9.07046 6.77032 8.8469 6.82839 8.64957 6.94073C8.45225 7.05306 8.28819 7.21565 8.17408 7.41196C8.05998 7.60827 7.9999 7.83129 7.99995 8.05835V13.9418C7.9999 14.1688 8.05998 14.3919 8.17408 14.5882C8.28819 14.7845 8.45225 14.9471 8.64957 15.0594C8.8469 15.1717 9.07046 15.2298 9.29751 15.2277C9.52456 15.2256 9.74701 15.1634 9.94223 15.0475L15.5179 11.7372C15.6459 11.6613 15.7518 11.5534 15.8254 11.4242C15.899 11.295 15.9377 11.1488 15.9377 11.0001C15.9377 10.8513 15.899 10.7052 15.8254 10.5759C15.7518 10.4467 15.6459 10.3388 15.5179 10.2629L9.94223 6.95264ZM0.714233 11.0001C0.714233 5.31978 5.31966 0.714355 10.9999 0.714355C16.6802 0.714355 21.2857 5.31978 21.2857 11.0001C21.2857 16.6804 16.6802 21.2858 10.9999 21.2858C5.31966 21.2858 0.714233 16.6804 0.714233 11.0001ZM10.9999 2.00007C6.02938 2.00007 1.99995 6.0295 1.99995 11.0001C1.99995 15.9706 6.02938 20.0001 10.9999 20.0001C15.9705 20.0001 19.9999 15.9706 19.9999 11.0001C19.9999 6.0295 15.9705 2.00007 10.9999 2.00007Z" fill="#F44336"/>
</svg>
