<svg id="Layer_1" data-name="Layer 1" xmlns="http://www.w3.org/2000/svg" viewBox="0 0 125 125"><title>integrity</title><path d="M68.48,49.8a1.83,1.83,0,0,0,1.83,1.84h3V73.36H51.64V51.64H62.5a1.84,1.84,0,0,0,0-3.67H50.78A2.81,2.81,0,0,0,48,50.78V74.22A2.81,2.81,0,0,0,50.78,77H74.22A2.81,2.81,0,0,0,77,74.22V50.78A2.81,2.81,0,0,0,74.22,48H70.31A1.83,1.83,0,0,0,68.48,49.8ZM10.13,7.32a2.81,2.81,0,0,0-2.81,2.81v12.7a2.81,2.81,0,0,0,2.81,2.8h12.7a2.81,2.81,0,0,0,2.8-2.8V10.13a2.81,2.81,0,0,0-2.8-2.81ZM22,22H11V11H22Zm.86,77.4H10.13a2.81,2.81,0,0,0-2.81,2.8v12.7a2.81,2.81,0,0,0,2.81,2.81h12.7a2.81,2.81,0,0,0,2.8-2.81v-12.7A2.81,2.81,0,0,0,22.83,99.37ZM22,114H11V103H22Z"/><path d="M96.8,33h23.44A4.77,4.77,0,0,0,125,28.2V4.76A4.77,4.77,0,0,0,120.24,0H96.8A4.77,4.77,0,0,0,92,4.76v9.89h-22a1.83,1.83,0,0,0-1.83,1.83V40.65h-10V33.5a5.5,5.5,0,1,0-3.66,0v7.15H46.38a5.74,5.74,0,0,0-5.73,5.73V57H18.31V33H28.2A4.77,4.77,0,0,0,33,28.2V23.44a1.83,1.83,0,1,0-3.66,0V28.2a1.11,1.11,0,0,1-1.1,1.1H4.76a1.11,1.11,0,0,1-1.1-1.1V4.76a1.11,1.11,0,0,1,1.1-1.1H28.2a1.11,1.11,0,0,1,1.1,1.1V15.63a1.83,1.83,0,0,0,3.66,0V4.76A4.77,4.77,0,0,0,28.2,0H4.76A4.77,4.77,0,0,0,0,4.76V28.2A4.77,4.77,0,0,0,4.76,33h9.89V58.84a1.83,1.83,0,0,0,1.83,1.83H40.65v7.81H38.14a5.5,5.5,0,1,0,0,3.66h2.51v6.48a5.74,5.74,0,0,0,5.73,5.73h8.19V106.1H33V96.8A4.77,4.77,0,0,0,28.2,92H4.76A4.77,4.77,0,0,0,0,96.8v23.44A4.77,4.77,0,0,0,4.76,125H28.2A4.77,4.77,0,0,0,33,120.24V109.76H56.4a1.83,1.83,0,0,0,1.83-1.83V84.35h10v8.13a5.49,5.49,0,1,0,3.66,0V84.35h6.72a5.74,5.74,0,0,0,5.73-5.73V66.15h22.34V92H96.8A4.77,4.77,0,0,0,92,96.8v4.76a1.83,1.83,0,0,0,3.66,0V96.8a1.11,1.11,0,0,1,1.1-1.1h23.44a1.11,1.11,0,0,1,1.1,1.1v23.44a1.11,1.11,0,0,1-1.1,1.1H96.8a1.11,1.11,0,0,1-1.1-1.1v-10.9a1.83,1.83,0,0,0-3.66,0v10.9A4.77,4.77,0,0,0,96.8,125h23.44a4.77,4.77,0,0,0,4.76-4.76V96.8A4.77,4.77,0,0,0,120.24,92h-9.89V64.32a1.83,1.83,0,0,0-1.83-1.83H84.35V56.27h8.73a5.49,5.49,0,1,0,0-3.66H84.35V46.38a5.74,5.74,0,0,0-5.73-5.73H71.9V18.31H92V28.2A4.77,4.77,0,0,0,96.8,33ZM56.4,26.49a1.83,1.83,0,1,1-1.83,1.83A1.83,1.83,0,0,1,56.4,26.49ZM33,72.14a1.83,1.83,0,1,1,1.83-1.83A1.83,1.83,0,0,1,33,72.14Zm-3.66,48.1a1.11,1.11,0,0,1-1.1,1.1H4.76a1.11,1.11,0,0,1-1.1-1.1V96.8a1.11,1.11,0,0,1,1.1-1.1H28.2a1.11,1.11,0,0,1,1.1,1.1ZM70.07,99.49a1.83,1.83,0,1,1,1.83-1.83A1.83,1.83,0,0,1,70.07,99.49ZM98.25,52.61a1.83,1.83,0,1,1-1.83,1.83A1.84,1.84,0,0,1,98.25,52.61ZM80.69,46.38V78.62a2.07,2.07,0,0,1-2.07,2.07H46.38a2.07,2.07,0,0,1-2.07-2.07V46.38a2.07,2.07,0,0,1,2.07-2.07H78.62A2.07,2.07,0,0,1,80.69,46.38ZM96.8,3.66h23.44a1.11,1.11,0,0,1,1.1,1.1V28.2a1.11,1.11,0,0,1-1.1,1.1H96.8a1.11,1.11,0,0,1-1.1-1.1V16.53s0,0,0-.05,0,0,0-.05V4.76A1.11,1.11,0,0,1,96.8,3.66Z"/><path d="M102.17,25.63h12.7a2.81,2.81,0,0,0,2.81-2.8V10.13a2.81,2.81,0,0,0-2.81-2.81h-12.7a2.81,2.81,0,0,0-2.8,2.81v12.7A2.81,2.81,0,0,0,102.17,25.63ZM103,11h11V22H103Zm11.84,106.69a2.81,2.81,0,0,0,2.81-2.81v-12.7a2.81,2.81,0,0,0-2.81-2.8h-12.7a2.81,2.81,0,0,0-2.8,2.8v12.7a2.81,2.81,0,0,0,2.8,2.81ZM103,103h11v11H103Z"/></svg>