<svg id="Layer_1" data-name="Layer 1" xmlns="http://www.w3.org/2000/svg" xmlns:xlink="http://www.w3.org/1999/xlink" viewBox="0 0 125 125"><defs><clipPath id="clip-path" transform="translate(0.29 0.11)"><rect x="-0.29" y="-0.11" width="125" height="125" fill="none"/></clipPath></defs><title>security</title><g clip-path="url(#clip-path)"><path d="M96.75,15.69a2.38,2.38,0,0,1-1.4-.45A57.76,57.76,0,0,0,40.59,9a2.44,2.44,0,1,1-1.84-4.52,62.64,62.64,0,0,1,59.41,6.81,2.44,2.44,0,0,1-1.41,4.44Z" transform="translate(0.29 0.11)"/><path d="M109.72,101.57a2.38,2.38,0,0,1-1.49-.51,2.44,2.44,0,0,1-.44-3.42A57.65,57.65,0,0,0,110,30.24a2.44,2.44,0,0,1,4-2.72,62.53,62.53,0,0,1-2.44,73.11A2.43,2.43,0,0,1,109.72,101.57Z" transform="translate(0.29 0.11)"/><path d="M62.21,124.89A62.51,62.51,0,0,1-.29,62.39,61.91,61.91,0,0,1,12.77,24.15a2.44,2.44,0,1,1,3.86,3,57.05,57.05,0,0,0-12,35.25,57.66,57.66,0,0,0,79.24,53.42,2.44,2.44,0,1,1,1.83,4.52A62,62,0,0,1,62.21,124.89Z" transform="translate(0.29 0.11)"/><path d="M82.22,51.83h-10a2.44,2.44,0,0,1-2.44-2.44V42.64a7.57,7.57,0,0,0-15.13,0v6.75a2.44,2.44,0,0,1-2.44,2.44h-10a2.44,2.44,0,0,1-2.44-2.44V42.64a22.45,22.45,0,1,1,44.89,0v6.75A2.44,2.44,0,0,1,82.22,51.83Zm-7.56-4.89h5.12v-4.3a17.57,17.57,0,1,0-35.13,0v4.3h5.12v-4.3a12.45,12.45,0,0,1,24.89,0Z" transform="translate(0.29 0.11)"/><path d="M62.21,86.73a7.33,7.33,0,0,1-7.32-7.32V72.12a9.35,9.35,0,1,1,14.65,0v7.29A7.33,7.33,0,0,1,62.21,86.73Zm0-24.89a4.47,4.47,0,0,0-3.15,7.63,2.41,2.41,0,0,1,.71,1.72v8.22a2.45,2.45,0,0,0,4.89,0V71.19a2.41,2.41,0,0,1,.71-1.72,4.47,4.47,0,0,0-3.16-7.63Z" transform="translate(0.29 0.11)"/><path d="M81.22,96.75h-38a8.84,8.84,0,0,1-8.83-8.83V55.77a8.84,8.84,0,0,1,8.83-8.83h38a8.84,8.84,0,0,1,8.83,8.83V87.92A8.84,8.84,0,0,1,81.22,96.75Zm-38-44.92a4,4,0,0,0-3.94,3.94V87.92a4,4,0,0,0,3.94,4h38a4,4,0,0,0,3.94-4V55.77a4,4,0,0,0-3.94-3.94Z" transform="translate(0.29 0.11)"/><path d="M19.3,29.51a9.28,9.28,0,1,1,9.28-9.27A9.28,9.28,0,0,1,19.3,29.51Zm0-13.67a4.4,4.4,0,1,0,4.4,4.4A4.4,4.4,0,0,0,19.3,15.84Z" transform="translate(0.29 0.11)"/><path d="M105.12,113.81a9.28,9.28,0,1,1,9.28-9.27A9.28,9.28,0,0,1,105.12,113.81Zm0-13.67a4.4,4.4,0,1,0,4.4,4.4A4.4,4.4,0,0,0,105.12,100.14Z" transform="translate(0.29 0.11)"/><path d="M105.12,22.81a2.5,2.5,0,0,1-.47,0,2.44,2.44,0,0,1-.46-.14,2.78,2.78,0,0,1-.42-.22,2.17,2.17,0,0,1-.37-.31,2.25,2.25,0,0,1-.31-.37,2.78,2.78,0,0,1-.22-.42,2.44,2.44,0,0,1-.14-.46,2.42,2.42,0,0,1,0-.47,2.61,2.61,0,0,1,0-.48,2.44,2.44,0,0,1,.14-.46,3.36,3.36,0,0,1,.22-.42,2.76,2.76,0,0,1,.31-.37,2.69,2.69,0,0,1,.37-.3,2.13,2.13,0,0,1,.42-.23,2.44,2.44,0,0,1,.46-.14,2.53,2.53,0,0,1,.95,0,2.44,2.44,0,0,1,.46.14,2.13,2.13,0,0,1,.42.23,2.69,2.69,0,0,1,.37.3,2.11,2.11,0,0,1,.3.37,2.34,2.34,0,0,1,.37.88,2.61,2.61,0,0,1,0,.48,2.42,2.42,0,0,1,0,.47,2.44,2.44,0,0,1-.14.46,2.13,2.13,0,0,1-.23.42,1.8,1.8,0,0,1-.3.37,2.17,2.17,0,0,1-.37.31,2.78,2.78,0,0,1-.42.22,2.44,2.44,0,0,1-.46.14A2.61,2.61,0,0,1,105.12,22.81Z" transform="translate(0.29 0.11)"/></g></svg>