<svg xmlns="http://www.w3.org/2000/svg" xmlns:xlink="http://www.w3.org/1999/xlink" viewBox="0 0 288.72 277.7"><defs><clipPath id="clip-path" transform="translate(-5.29 -11.15)"><path d="M121.68,265.27S79.85,291.93,60,276.68c-18.69-14.34,16.77-60.32-12.7-81.53-19-13.68-32.06-29.9-35.23-44.93-4.87-23,9.68-43.24,32.23-47.3,44.63-8,54.44-6,86.43-34.79,21.5-19.34,47.15-44.23,73.79-51,42.45-10.76,84,9,89.09,53.27,6.69,57.75-17.39,113.2-50.09,137.55,18.47,46.76-6.4,76.36-53.42,59.26S160.94,242.72,121.68,265.27Z" fill="none"/></clipPath><clipPath id="clip-path-2" transform="translate(-5.29 -11.15)"><path d="M169.36,174.24H65.59l-1.44-58.95c0-20.63,47.25-22.85,67.87-22.85h0a37.34,37.34,0,0,1,37.34,37.34Z" fill="none"/></clipPath><clipPath id="clip-path-3" transform="translate(-5.29 -11.15)"><path d="M141.61,210.29c-1.3-.47-17.54-30.75-19-30L60.1,209.66c-1.49.75,11.62,34.63,11.22,36l45.3,9a3.21,3.21,0,0,0,3.49-1.7Z" fill="none"/></clipPath></defs><title>email</title><g style="isolation:isolate"><g id="Layer_1" data-name="Layer 1"><ellipse cx="88.04" cy="275.5" rx="6.51" ry="2.2" fill="#e4e9ff"/><path d="M121.68,265.27S79.85,291.93,60,276.68c-18.69-14.34,16.77-60.32-12.7-81.53-19-13.68-32.06-29.9-35.23-44.93-4.87-23,9.68-43.24,32.23-47.3,44.63-8,54.44-6,86.43-34.79,21.5-19.34,47.15-44.23,73.79-51,42.45-10.76,84,9,89.09,53.27,6.69,57.75-69.38,88.69-50.09,137.55,18.47,46.76-6.4,76.36-53.42,59.26S160.94,242.72,121.68,265.27Z" transform="translate(-5.29 -11.15)" fill="#8ad2ff"/><path d="M44.28,102.92c44.63-8,54.44-6,86.43-34.79,21.5-19.34,47.15-44.23,73.79-51,42.45-10.76,84,9,89.09,53.27a62.13,62.13,0,0,1,.41,7.26,62.54,62.54,0,0,0-.41-8.13C288.46,25.26,247,5.5,204.5,16.26c-26.64,6.76-52.29,31.66-73.79,51C98.72,96,88.91,94,44.28,102c-19.83,3.58-33.46,19.65-33.16,39.12C11.23,122.09,24.75,106.44,44.28,102.92Z" transform="translate(-5.29 -11.15)" fill="#fff"/><path d="M240.37,191.87A42.93,42.93,0,0,0,243.5,208c4,10.21,6,19.59,6.12,27.85,0-8.47-1.94-18.16-6.12-28.72A43.45,43.45,0,0,1,240.37,191.87Z" transform="translate(-5.29 -11.15)" fill="#fff"/><path d="M59.52,221.26c-.17,14-5.4,29.11-5.29,40.56C54.38,250.23,59.57,235.09,59.52,221.26Z" transform="translate(-5.29 -11.15)" fill="#fff"/><path d="M39.28,242.21c-3.42,3.4-5.46,4.27-6.44,3-.78-1,.75-3.12,4.4-5.6A24.9,24.9,0,0,1,42.42,237c-1.2-.43-2.41-.85-3.62-1.25a26.12,26.12,0,0,1-4.32,3.62c-3.3,2.17-5.08,2.52-5.66,1.38-.46-.91,1.12-2.38,4.45-3.76a20.27,20.27,0,0,1,5.24-1.34l-2.37-.77c-1.07-.34-.63-2,.45-1.7L39,234a20.49,20.49,0,0,1-3.32-3.79c-2-3-2.48-5.1-1.59-5.6,1.12-.62,2.39.66,3.93,4.3a25.9,25.9,0,0,1,1.54,5.27c1.24.42,2.47.86,3.7,1.31a24.25,24.25,0,0,1-1.3-6.45c-.25-4.4.53-6.92,1.78-6.89,1.57,0,2.12,2.17,1.49,7a31.49,31.49,0,0,1-1.63,6.5c1.36.5,2.72,1,4.07,1.56a24.28,24.28,0,0,1-.64-6.42c.18-4.4,1.19-6.83,2.43-6.69,1.56.19,1.9,2.38.81,7.08a30.85,30.85,0,0,1-2.19,6.2c1.29.51,2.57,1.05,3.84,1.6a27.61,27.61,0,0,1,0-6.11c.6-5.06,2-7.77,3.4-7.49,1.78.35,2,2.9.3,8.22a36.09,36.09,0,0,1-2.51,5.91c.95.42,1.9.85,2.84,1.29a27.74,27.74,0,0,1,.89-6c1.32-4.92,3.08-7.41,4.44-6.93,1.71.6,1.54,3.16-.88,8.18a35.75,35.75,0,0,1-3.22,5.35l2.1,1a27.78,27.78,0,0,1,2.88-5.83c2.8-4.25,5.26-6.06,6.4-5.17,1.43,1.11.46,3.48-3.42,7.48a35.16,35.16,0,0,1-4.76,4.08c1,.51,2,1,3,1.57a28.26,28.26,0,0,1,4.44-4.59c4-3.2,6.86-4.17,7.67-3,1,1.49-.61,3.46-5.53,6.1a36.49,36.49,0,0,1-5.16,2.23q1.93,1,3.84,2.16a27.84,27.84,0,0,1,5.23-4.22c4.35-2.66,7.33-3.25,8-2,.83,1.61-1.05,3.35-6.26,5.33a34.73,34.73,0,0,1-5.69,1.61c1.34.8,2.68,1.62,4,2.46a20.16,20.16,0,0,1,4.4-3.43c3.16-1.79,5.3-2.13,5.73-1.2.55,1.17-.83,2.35-4.59,3.64a26.54,26.54,0,0,1-5.28,1.16c1.59,1,3.17,2.06,4.73,3.14a13.48,13.48,0,0,1,2.92-1.55c2.3-.86,3.76-.86,4-.2.24.84-.8,1.48-3.44,1.94a16.64,16.64,0,0,1-2.83.23l1.77,1.25q5.77,4.15,11.15,8.83c.86.74-.39,2-1.23,1.24q-5.74-5-12-9.37A16.19,16.19,0,0,1,81,258.9c1.24,2.37,1.37,3.59.55,3.91-.64.25-1.52-.91-2.24-3.25a14,14,0,0,1-.55-3.66q-2-1.38-4-2.71a25.39,25.39,0,0,1,1.66,3.8c1.26,3.77,1.16,5.59-.11,5.86-1,.22-2-1.69-2.52-5.29a19.81,19.81,0,0,1,0-5c-1.52-1-3.07-1.93-4.62-2.86a36.51,36.51,0,0,1,2.49,6.12c1.58,5.34,1.35,7.89-.44,8.21-1.42.26-2.76-2.48-3.28-7.54a28.5,28.5,0,0,1,.27-7.35c-1.55-.91-3.12-1.8-4.7-2.65a36,36,0,0,1,1.92,7c.88,5.5.32,8-1.49,8.09-1.44.07-2.42-2.81-2.28-7.9a28.35,28.35,0,0,1,1.28-7.5l-.43-.23-.14,0,0-.08c-1-.53-2-1-3-1.54a35.7,35.7,0,0,1-.26,7.8c-.83,5.51-2.13,7.72-3.88,7.25-1.39-.37-1.45-3.41.23-8.22a28.82,28.82,0,0,1,3.65-7L56.62,243A35.51,35.51,0,0,1,54,250.1c-2.52,5-4.45,6.66-6,5.67-1.2-.79-.3-3.7,2.81-7.73a28.6,28.6,0,0,1,5.39-5.26l-.12-.05-.14.16s0-.09,0-.23c-1.05-.5-2.11-1-3.17-1.46a36.67,36.67,0,0,1-3.61,6.58c-3.21,4.56-5.36,6-6.72,4.76-1.08-1,.23-3.71,3.88-7.26A28.13,28.13,0,0,1,52.18,241v0l-2.79-1.21-1.63-.66A31,31,0,0,1,44,245c-3.07,3.71-5,4.77-6.11,3.64-.87-.89.45-3.17,3.84-6a24.73,24.73,0,0,1,6-3.6c-1.47-.59-2.94-1.17-4.43-1.72A31.37,31.37,0,0,1,39.28,242.21Z" transform="translate(-5.29 -11.15)" fill="#43c7df"/><path d="M64.51,198.27c-2.72.74-4,.6-4.16-.31-.11-.72,1.29-1.38,3.86-1.58a14.25,14.25,0,0,1,3.4.15c-.49-.56-1-1.13-1.48-1.68a15.17,15.17,0,0,1-3.25.6c-2.31.15-3.32-.19-3.28-.94,0-.59,1.25-.89,3.35-.63a11.94,11.94,0,0,1,3.06.83c-.33-.36-.65-.72-1-1.07s.26-1.22.71-.74.66.72,1,1.08a11.65,11.65,0,0,1-.6-2.89c-.15-2.1.21-3.32.81-3.31.75,0,1,1,.76,3.32a15,15,0,0,1-.74,3.14c.51.57,1,1.15,1.51,1.73a14.11,14.11,0,0,1,1.2-3.66c1.15-2.31,2.27-3.37,2.9-3,.79.47.45,1.72-1.26,4a18.23,18.23,0,0,1-2.7,2.84c.55.65,1.09,1.31,1.62,2a14.3,14.3,0,0,1,1.53-3.45c1.36-2.2,2.58-3.14,3.17-2.71s.28,1.76-1.63,3.84a18.52,18.52,0,0,1-2.91,2.53c.51.63,1,1.28,1.5,1.92a16.59,16.59,0,0,1,1.77-3.11c1.77-2.4,3.26-3.38,3.9-2.83.81.69.17,2.05-2.22,4.28a20.85,20.85,0,0,1-3,2.28c.36.49.72,1,1.07,1.48a17.15,17.15,0,0,1,2.2-2.82c2.09-2.12,3.71-2.88,4.26-2.24.7.8-.12,2-2.81,3.91a21.46,21.46,0,0,1-3.19,1.8l.78,1.12A16.88,16.88,0,0,1,77.81,202c2.66-1.35,4.43-1.56,4.76-.79.41,1-.77,1.91-3.9,2.83a21.3,21.3,0,0,1-3.61.71c.37.55.73,1.11,1.09,1.67a16.35,16.35,0,0,1,3.59-1c3-.49,4.7-.15,4.77.69.09,1.06-1.31,1.59-4.58,1.51a21.13,21.13,0,0,1-3.28-.35c.46.73.9,1.47,1.34,2.21a16.5,16.5,0,0,1,3.88-.64c3-.1,4.68.46,4.64,1.3,0,1.07-1.5,1.41-4.73.91a20.66,20.66,0,0,1-3.36-.82c.45.79.9,1.6,1.33,2.41a11.93,11.93,0,0,1,3.23-.48c2.13,0,3.32.45,3.27,1-.06.76-1.11,1-3.39.53a15.08,15.08,0,0,1-3-.93q.78,1.47,1.5,3a7.69,7.69,0,0,1,1.94,0c1.42.23,2.16.65,2.07,1s-.84.52-2.31,0a8.34,8.34,0,0,1-1.51-.7l.54,1.15c1.16,2.53,2.21,5.1,3.13,7.73.22.62-.77.89-1,.27-1-2.8-2.12-5.55-3.38-8.23a10.17,10.17,0,0,1,.12,1.84c-.06,1.56-.35,2.22-.85,2.15s-.52-.91-.2-2.31a7.91,7.91,0,0,1,.77-2c-.41-.85-.83-1.69-1.26-2.53a14,14,0,0,1-.25,2.41c-.44,2.29-1,3.18-1.75,3-.57-.18-.54-1.45.24-3.43a12.16,12.16,0,0,1,1.44-2.56c-.49-.94-1-1.87-1.52-2.79a21.7,21.7,0,0,1-.5,3.83c-.74,3.18-1.59,4.41-2.6,4.06-.79-.28-.69-2.06.51-4.79a16.48,16.48,0,0,1,2.26-3.67c-.53-.91-1.07-1.81-1.63-2.71a20.81,20.81,0,0,1-1,4.12c-1.14,3.07-2.15,4.18-3.1,3.7-.75-.38-.42-2.13,1.12-4.69a16.65,16.65,0,0,1,2.82-3.45c-.05-.08-.1-.16-.16-.24l-.08,0,0,0c-.35-.55-.71-1.1-1.07-1.65a21.41,21.41,0,0,1-2.39,3.9c-2,2.57-3.32,3.32-4.08,2.58-.6-.59.25-2.16,2.5-4.13A16.79,16.79,0,0,1,74,205c-.3-.45-.61-.9-.92-1.34a20.89,20.89,0,0,1-3.41,2.85c-2.72,1.81-4.19,2.11-4.67,1.17-.39-.75.91-2,3.66-3.13A16.48,16.48,0,0,1,73,203.45l0-.07-.11.05a1.07,1.07,0,0,1,.06-.12c-.4-.56-.79-1.12-1.2-1.67A21.27,21.27,0,0,1,67.93,204c-3,1.39-4.45,1.49-4.8.48-.27-.8,1.19-1.82,4.08-2.58a16.55,16.55,0,0,1,4.24-.5h0c-.35-.48-.71-1-1.08-1.43l-.63-.8A18.52,18.52,0,0,1,66.09,201c-2.64,1-3.94,1-4.17.1-.18-.71,1.15-1.49,3.69-1.95a14.22,14.22,0,0,1,4.09-.1c-.58-.73-1.16-1.45-1.76-2.16A18.76,18.76,0,0,1,64.51,198.27Z" transform="translate(-5.29 -11.15)" fill="#43c7df"/><path d="M202.67,211.13c-2-2-2.51-3.19-1.79-3.77.57-.45,1.83.44,3.28,2.58a13.67,13.67,0,0,1,1.54,3c.26-.7.5-1.41.74-2.12a15,15,0,0,1-2.13-2.53c-1.26-1.93-1.48-3-.8-3.32s1.39.66,2.2,2.61a12,12,0,0,1,.79,3.07l.45-1.39c.2-.62,1.19-.37,1,.26l-.45,1.4A11.26,11.26,0,0,1,209.7,209c1.76-1.17,3-1.46,3.28-.94s-.38,1.41-2.51,2.31a15.11,15.11,0,0,1-3.09.9c-.24.73-.5,1.45-.76,2.17a14.26,14.26,0,0,1,3.77-.76c2.58-.15,4.06.31,4,1,0,.92-1.27,1.24-4.08.87a18.56,18.56,0,0,1-3.81-1c-.29.8-.59,1.59-.91,2.38a14.63,14.63,0,0,1,3.76-.37c2.58.1,4,.7,3.92,1.42-.11.91-1.39,1.11-4.14.48a18.73,18.73,0,0,1-3.64-1.28q-.45,1.13-.93,2.25a16.3,16.3,0,0,1,3.58,0c3,.36,4.55,1.17,4.39,2-.21,1-1.7,1.15-4.82.17a20.08,20.08,0,0,1-3.46-1.47c-.25.56-.5,1.12-.76,1.67a16.12,16.12,0,0,1,3.54.51c2.88.78,4.33,1.81,4.05,2.61-.35,1-1.84.9-4.79-.52a20.33,20.33,0,0,1-3.13-1.88l-.6,1.23a16.21,16.21,0,0,1,3.42,1.68c2.49,1.65,3.55,3.08,3,3.75-.65.84-2,.27-4.39-2a21,21,0,0,1-2.39-2.78c-.3.59-.6,1.18-.91,1.77a16.58,16.58,0,0,1,2.68,2.6c1.88,2.32,2.45,4,1.75,4.49-.87.61-2-.36-3.57-3.23a20.82,20.82,0,0,1-1.31-3q-.61,1.14-1.26,2.25a16.63,16.63,0,0,1,2.47,3.07c1.56,2.54,1.91,4.29,1.16,4.68-.95.48-2-.62-3.13-3.67a20.37,20.37,0,0,1-.94-3.34c-.47.79-1,1.58-1.44,2.35a12.14,12.14,0,0,1,2,2.58c1,1.85,1.25,3.1.7,3.36s-1.38-.49-2.13-2.69a15.4,15.4,0,0,1-.68-3.1c-.6.94-1.21,1.86-1.84,2.78a7.81,7.81,0,0,1,.91,1.71c.5,1.34.5,2.2.11,2.31s-.86-.47-1.13-2a9.79,9.79,0,0,1-.14-1.65c-.24.34-.48.69-.73,1-1.62,2.26-3.35,4.44-5.17,6.54-.43.5-1.15-.23-.72-.72q2.91-3.37,5.48-7a9.54,9.54,0,0,1-1.54,1c-1.39.73-2.1.8-2.29.32s.53-.89,1.91-1.31a7.88,7.88,0,0,1,2.14-.32c.54-.78,1.06-1.56,1.58-2.35a15.17,15.17,0,0,1-2.22,1c-2.21.74-3.28.68-3.44-.06-.12-.58,1-1.18,3.1-1.48a11.86,11.86,0,0,1,2.94,0c.58-.89,1.13-1.8,1.68-2.71a21.11,21.11,0,0,1-3.58,1.46c-3.14.93-4.63.79-4.82-.25-.15-.83,1.45-1.62,4.42-1.93a16.4,16.4,0,0,1,4.31.16c.53-.91,1.05-1.83,1.55-2.75a21.46,21.46,0,0,1-4.1,1.12c-3.23.52-4.69.19-4.74-.87-.05-.84,1.64-1.42,4.63-1.34a16.85,16.85,0,0,1,4.39.75c0-.08.08-.17.13-.25l0-.08.05,0c.3-.58.61-1.17.9-1.75a21.3,21.3,0,0,1-4.57-.16c-3.23-.48-4.52-1.24-4.25-2.27.21-.81,2-.85,4.82.13a17.13,17.13,0,0,1,4.08,2.14c.24-.48.48-1,.71-1.46a21.33,21.33,0,0,1-4.17-1.55c-2.91-1.48-3.9-2.61-3.32-3.5.46-.7,2.17-.17,4.54,1.65a16.62,16.62,0,0,1,3.07,3.15l0-.07-.1-.08h.14c.29-.62.57-1.24.85-1.87a21.19,21.19,0,0,1-3.86-2.11c-2.67-1.88-3.49-3.13-2.78-3.93.55-.63,2.16.13,4.25,2.27a16.85,16.85,0,0,1,2.53,3.44h0c.24-.55.48-1.09.71-1.64l.38-1a18.52,18.52,0,0,1-3.46-2.23c-2.18-1.8-2.8-2.94-2.14-3.58s1.86.26,3.51,2.25a14.09,14.09,0,0,1,2.11,3.5c.35-.86.69-1.72,1-2.59A18.62,18.62,0,0,1,202.67,211.13Z" transform="translate(-5.29 -11.15)" fill="#43c7df"/><path d="M239,210c-3.54-3.55-4.45-5.68-3.17-6.7,1-.81,3.25.78,5.83,4.58a25.25,25.25,0,0,1,2.74,5.39c.45-1.25.89-2.5,1.31-3.76A26.71,26.71,0,0,1,242,205c-2.25-3.44-2.63-5.29-1.44-5.9.95-.48,2.48,1.16,3.92,4.63a20.65,20.65,0,0,1,1.4,5.46c.27-.82.55-1.64.81-2.46.35-1.12,2.11-.66,1.76.46-.26.83-.53,1.65-.81,2.47a21.14,21.14,0,0,1,3.94-3.46c3.13-2.07,5.32-2.59,5.84-1.66.65,1.17-.69,2.49-4.48,4.09a25.87,25.87,0,0,1-5.49,1.61c-.43,1.29-.89,2.58-1.36,3.86a25.65,25.65,0,0,1,6.72-1.36c4.58-.26,7.21.55,7.18,1.85,0,1.63-2.27,2.21-7.25,1.55a32.21,32.21,0,0,1-6.78-1.69c-.52,1.42-1.06,2.84-1.62,4.24A25.55,25.55,0,0,1,251,218c4.58.19,7.12,1.24,7,2.53-.19,1.63-2.47,2-7.37.85a32.27,32.27,0,0,1-6.46-2.28c-.54,1.34-1.09,2.68-1.67,4a29.92,29.92,0,0,1,6.37,0c5.27.63,8.09,2.08,7.8,3.55-.36,1.85-3,2.06-8.56.31a36.49,36.49,0,0,1-6.16-2.61c-.44,1-.88,2-1.34,3a29.1,29.1,0,0,1,6.28.92c5.13,1.37,7.72,3.21,7.22,4.62-.63,1.79-3.29,1.61-8.52-.91a36.67,36.67,0,0,1-5.57-3.35c-.35.73-.71,1.46-1.07,2.18a29.89,29.89,0,0,1,6.08,3c4.43,2.92,6.31,5.48,5.39,6.66-1.15,1.5-3.62.49-7.8-3.55a36.26,36.26,0,0,1-4.24-5c-.54,1.06-1.08,2.11-1.64,3.15a29,29,0,0,1,4.78,4.63c3.33,4.13,4.35,7.13,3.11,8-1.56,1.08-3.6-.63-6.35-5.75a37.22,37.22,0,0,1-2.33-5.38c-.73,1.34-1.48,2.68-2.25,4a29,29,0,0,1,4.4,5.45c2.77,4.52,3.39,7.63,2.06,8.32-1.68.86-3.49-1.1-5.56-6.52a37.3,37.3,0,0,1-1.68-5.93c-.83,1.4-1.68,2.8-2.56,4.17a21.22,21.22,0,0,1,3.58,4.58c1.86,3.29,2.22,5.52,1.25,6-1.22.57-2.45-.87-3.79-4.79a26.7,26.7,0,0,1-1.21-5.5q-1.59,2.5-3.27,4.93a14,14,0,0,1,1.61,3c.9,2.38.9,3.91.21,4.11-.87.25-1.54-.84-2-3.59a18.07,18.07,0,0,1-.24-2.94c-.43.61-.86,1.23-1.3,1.84q-4.34,6-9.19,11.62c-.77.89-2.06-.4-1.29-1.28a158.13,158.13,0,0,0,9.75-12.46,17.36,17.36,0,0,1-2.74,1.79c-2.47,1.3-3.74,1.42-4.07.58-.26-.67.95-1.59,3.39-2.34a14,14,0,0,1,3.8-.57q1.44-2.07,2.82-4.17a26.17,26.17,0,0,1-4,1.73c-3.92,1.32-5.81,1.21-6.1-.11-.23-1,1.76-2.11,5.51-2.63a20.51,20.51,0,0,1,5.23,0q1.53-2.38,3-4.82a37.5,37.5,0,0,1-6.36,2.6c-5.57,1.65-8.22,1.41-8.56-.45-.27-1.48,2.58-2.88,7.86-3.42a29.47,29.47,0,0,1,7.65.27q1.42-2.42,2.76-4.89a38.36,38.36,0,0,1-7.29,2c-5.74.92-8.34.34-8.43-1.55-.08-1.5,2.93-2.52,8.23-2.38a29.64,29.64,0,0,1,7.81,1.33l.23-.45,0-.15.08.06c.55-1,1.08-2.07,1.61-3.11a37.81,37.81,0,0,1-8.13-.28c-5.74-.86-8-2.2-7.56-4,.38-1.45,3.56-1.51,8.57.23a29.6,29.6,0,0,1,7.25,3.81c.43-.86.86-1.73,1.28-2.6a37.85,37.85,0,0,1-7.42-2.77c-5.18-2.62-6.93-4.63-5.9-6.21.82-1.25,3.85-.31,8.06,2.92a29.58,29.58,0,0,1,5.47,5.61l.06-.12-.17-.14.24,0c.52-1.09,1-2.2,1.52-3.3a38.29,38.29,0,0,1-6.86-3.76c-4.75-3.34-6.2-5.58-5-7,1-1.13,3.85.23,7.55,4a29.75,29.75,0,0,1,4.51,6.11h0c.43-1,.85-1.94,1.25-2.92.24-.56.46-1.13.69-1.69a32.15,32.15,0,0,1-6.16-3.95c-3.87-3.21-5-5.23-3.8-6.37.93-.9,3.31.47,6.24,4a25.5,25.5,0,0,1,3.76,6.23c.61-1.53,1.21-3.07,1.78-4.62A33.53,33.53,0,0,1,239,210Z" transform="translate(-5.29 -11.15)" fill="#43c7df"/><g clip-path="url(#clip-path)"><path d="M211.81,87.33H132v92h113.8a8.44,8.44,0,0,0,8.44-8.44V129.78A42.46,42.46,0,0,0,211.81,87.33Z" transform="translate(-5.29 -11.15)" fill="#2a70d7"/><path d="M163.17,165.36h91.09V129.78a42.68,42.68,0,0,0-.48-6.33H163.17Z" transform="translate(-5.29 -11.15)" fill="#259bff"/><path d="M132,87.33a42.49,42.49,0,0,0-42.45,42.45v49.57h84.9V129.78A42.5,42.5,0,0,0,132,87.33Z" transform="translate(-5.29 -11.15)" fill="#2981ff"/><path d="M126.73,81.29h0a37.34,37.34,0,0,1,37.34,37.34v44.45a0,0,0,0,1,0,0H89.39a0,0,0,0,1,0,0V118.63A37.34,37.34,0,0,1,126.73,81.29Z" fill="#0c307f"/><path d="M206.76,142.89c0,9.41-5.54,17-12.37,17S182,152.3,182,142.89s5.54-17,12.36-17S206.76,133.48,206.76,142.89Z" transform="translate(-5.29 -11.15)" fill="#2a70d7"/><path d="M207.48,142.89c0-5.36-1.88-10.09-4.77-13.06V126.6h-7.06c-6.53,0-11.83,7.29-11.83,16.3s5.3,16.3,11.83,16.3h7.06v-3.25A18.81,18.81,0,0,0,207.48,142.89Z" transform="translate(-5.29 -11.15)" fill="#ffb237"/><ellipse cx="196.87" cy="131.74" rx="11.83" ry="16.3" fill="#ffd837"/><path d="M210.28,142.89c0,6.18-3.64,11.19-8.12,11.19s-8.12-5-8.12-11.19,3.63-11.19,8.12-11.19S210.28,136.71,210.28,142.89Z" transform="translate(-5.29 -11.15)" fill="#fdf266"/><path d="M209.51,142.89c0,5.59-3.29,10.12-7.35,10.12s-7.35-4.53-7.35-10.12,3.29-10.13,7.35-10.13S209.51,137.29,209.51,142.89Z" transform="translate(-5.29 -11.15)" fill="#ff442c"/><ellipse cx="196.87" cy="131.74" rx="5.32" ry="7.33" fill="#ffd837"/><path d="M204.5,147.3h0a4.17,4.17,0,0,1-4.15-4.15V62.69a4.17,4.17,0,0,1,4.15-4.15h0a4.17,4.17,0,0,1,4.16,4.15v80.46A4.17,4.17,0,0,1,204.5,147.3Z" transform="translate(-5.29 -11.15)" fill="#ffaf37"/><polygon points="241.13 74.16 203.37 74.16 203.37 51.73 241.13 51.73 236.56 62.95 241.13 74.16" fill="#ff442c"/><path d="M208.66,62.89c0-.2,5.79,22.42,5.79,22.42h-5.79" transform="translate(-5.29 -11.15)" fill="#db2800"/><path d="M171.91,179.35H39.9a2.56,2.56,0,0,1-2.55-2.56h0a2.56,2.56,0,0,1,2.55-2.55h132a2.56,2.56,0,0,1,2.56,2.55h0A2.56,2.56,0,0,1,171.91,179.35Z" transform="translate(-5.29 -11.15)" fill="#24a3ff"/><path d="M227.58,255.9c-13.83,13.83-34.79,15.29-34.79,15.29s1.46-21,15.29-34.79,34.79-15.29,34.79-15.29S241.41,242.07,227.58,255.9Z" transform="translate(-5.29 -11.15)" fill="#239eb1"/><path d="M226.38,265.3c-15,9.09-33.59,5.88-33.59,5.88s5.76-18,20.77-27,33.6-5.88,33.6-5.88S241.39,256.21,226.38,265.3Z" transform="translate(-5.29 -11.15)" fill="#20b2c3"/><path d="M215.72,269.37c-10.71,5-22.93,1.54-22.93,1.54s5.14-11.62,15.85-16.64,22.94-1.54,22.94-1.54S226.43,264.35,215.72,269.37Z" transform="translate(-5.29 -11.15)" fill="#1bc9d0"/><rect x="162.28" y="168.2" width="27.48" height="104.28" fill="#ff9e20"/><path d="M171.8,256.78c-1,.91.48,2.42,1.51,1.51A22.29,22.29,0,0,0,180.37,246c.27-1.34-1.79-1.91-2.05-.57A20.38,20.38,0,0,1,171.8,256.78Z" transform="translate(-5.29 -11.15)" fill="#f98020"/><path d="M187.37,195.54v.06a1.09,1.09,0,0,0,.74,1.31,1.08,1.08,0,0,0,1.31-.74,6.87,6.87,0,0,0-8.17-8,1.08,1.08,0,0,0-.75,1.31,1.1,1.1,0,0,0,1.32.74l.18,0,.27,0a4,4,0,0,1,.69,0l.31,0,.14,0a4.31,4.31,0,0,1,.62.15l.31.09.22.09a3.84,3.84,0,0,1,.53.28,5.39,5.39,0,0,1,.5.33l.15.12.23.21a5,5,0,0,1,1.17,1.86,6.09,6.09,0,0,1,.17.61l.06.31a.32.32,0,0,1,0,.07.26.26,0,0,0,0,.07c0,.23,0,.46,0,.69s0,.21,0,.32S187.37,195.49,187.37,195.54Z" transform="translate(-5.29 -11.15)" fill="#f98020"/><path d="M167.57,265.27a28.17,28.17,0,0,1,11.34-4c1.34-.16,1.36-2.29,0-2.13a31.2,31.2,0,0,0-11.34,3.65Z" transform="translate(-5.29 -11.15)" fill="#f98020"/><path d="M180.55,255.49a1.07,1.07,0,0,0,0-2.13A1.07,1.07,0,0,0,180.55,255.49Z" transform="translate(-5.29 -11.15)" fill="#f98020"/><path d="M175.07,192.31a1.09,1.09,0,0,0-1.31.74,8.42,8.42,0,0,0,.25,7.16,6.82,6.82,0,0,0,5.57,3.54,6.61,6.61,0,0,0,5.69-3.25c1.28-2.09,1.44-5.06-.49-6.82a3.81,3.81,0,0,0-3.59-1,3.46,3.46,0,0,0-2.52,2.64,1.1,1.1,0,0,0,.74,1.31,1.08,1.08,0,0,0,1.31-.75c.23-1.39,1.84-1.48,2.71-.59,1.15,1.19.7,3-.13,4.29a4.39,4.39,0,0,1-3.72,2,4.67,4.67,0,0,1-3.66-2.35,6.44,6.44,0,0,1-.11-5.65A1.08,1.08,0,0,0,175.07,192.31Z" transform="translate(-5.29 -11.15)" fill="#f98020"/><path d="M195.05,278.4c-4.32-.78-8.52-1.89-13-1.7a27.78,27.78,0,0,0-14.51,4.64v2.29H168c4.93-3.74,11.52-5.21,17.71-4.74a87.36,87.36,0,0,1,9.34,1.65Z" transform="translate(-5.29 -11.15)" fill="#f98020"/><path d="M167.57,190.08a25.4,25.4,0,0,1,10.77-10.73h-4.08a27.82,27.82,0,0,0-6.69,6.7Z" transform="translate(-5.29 -11.15)" fill="#f98020"/><path d="M185.56,182.77a1.08,1.08,0,0,0-1.31.75,1.1,1.1,0,0,0,.75,1.31s.3.13.06,0l.23.1.42.21q.43.24.84.51l.18.13.11.08.11.09.2.16a9.08,9.08,0,0,1,.71.68l.31.35a1.56,1.56,0,0,1,.16.2l0,0c.19.26.38.53.55.81a8.21,8.21,0,0,1,.44.83c0,.07.07.15.11.23-.11-.24,0,0,0,.06s.12.32.17.48a1.06,1.06,0,1,0,2.05-.56A10.44,10.44,0,0,0,185.56,182.77Z" transform="translate(-5.29 -11.15)" fill="#f98020"/><path d="M184.55,209.11a34.79,34.79,0,0,0-3.79,18.1,70.72,70.72,0,0,0,11.57,35.34c.74,1.15,2.59.08,1.84-1.07A68.92,68.92,0,0,1,182.93,228a33.16,33.16,0,0,1,3.46-17.82,63,63,0,0,1,8.66-11.82v-3.21C191.18,199.5,187.29,203.94,184.55,209.11Z" transform="translate(-5.29 -11.15)" fill="#f98020"/><path d="M175.41,225.92c.52,10.35-3.24,20-7.84,29.13v4.63c5.67-10.71,10.82-22.21,9.92-34.54-.65-9.06-4.68-17.18-9.92-24.42v3.71C171.86,210.89,175,218.06,175.41,225.92Z" transform="translate(-5.29 -11.15)" fill="#f98020"/><path d="M190.93,230.93a1.07,1.07,0,0,0,0,2.13A1.07,1.07,0,0,0,190.93,230.93Z" transform="translate(-5.29 -11.15)" fill="#f98020"/><path d="M187.21,219.05c-2.41,7.75-1.67,16-.19,23.88.25,1.35,2.31.78,2.06-.57-2.07-11-2.1-24.58,6-32.84v-2.9A27.22,27.22,0,0,0,187.21,219.05Z" transform="translate(-5.29 -11.15)" fill="#f98020"/><path d="M192.71,250.24a22.3,22.3,0,0,0,.41-13.09,1.07,1.07,0,0,0-2.06.57,20.21,20.21,0,0,1-.4,11.95C190.21,251,192.27,251.53,192.71,250.24Z" transform="translate(-5.29 -11.15)" fill="#f98020"/><path d="M194.34,271.15c.24.08.48.12.71.2v-2.28c-1.66-.55-3.31-1.18-5-1.85-4.23-1.71-8.73-3.47-13.37-2.79-3.53.52-6.46,2.43-9.14,4.65v2.8c3.51-3.06,7.27-5.78,12.21-5.44C184.9,266.78,189.58,269.5,194.34,271.15Z" transform="translate(-5.29 -11.15)" fill="#f98020"/><path d="M176.53,186.55h-.23a.71.71,0,0,0-.41.09.72.72,0,0,0-.35.22.87.87,0,0,0-.22.34,1,1,0,0,0-.09.41c0,.1,0,.19,0,.28a1.06,1.06,0,0,0,.27.47l.22.17a1,1,0,0,0,.54.15h.23a.8.8,0,0,0,.41-.1.72.72,0,0,0,.35-.22.87.87,0,0,0,.22-.34,1,1,0,0,0,.09-.41l0-.28a1.06,1.06,0,0,0-.27-.47l-.22-.17a1,1,0,0,0-.54-.14Z" transform="translate(-5.29 -11.15)" fill="#f98020"/><path d="M180.31,184.66a1.07,1.07,0,0,0,0-2.13,1.07,1.07,0,0,0,0,2.13Z" transform="translate(-5.29 -11.15)" fill="#f98020"/><g clip-path="url(#clip-path-2)"><rect x="77.95" y="106.08" width="95.1" height="57" rx="5.3" fill="#ff9e20"/><path d="M83.84,120.7l45.67,33.35,48-33.72a6.07,6.07,0,0,0-5.3-3.1H89.32A6.07,6.07,0,0,0,83.84,120.7Z" transform="translate(-5.29 -11.15)" fill="#ff8920"/><path d="M176.65,172.35a6.06,6.06,0,0,1-4.4,1.89H89.32a6.08,6.08,0,0,1-4.45-2l44.75-26.56Z" transform="translate(-5.29 -11.15)" fill="#ffba1f"/><path d="M176.65,119.12a5.75,5.75,0,0,0-4.4-1.89H89.32a5.75,5.75,0,0,0-4.45,2l42.5,33.12a3.72,3.72,0,0,0,4.53,0Z" transform="translate(-5.29 -11.15)" fill="#ffd837"/><polyline points="165.15 163.09 151.2 105.77 165.15 105.77 173.05 129.05 172.4 145.35" fill="#ff9e20" opacity="0.43" style="mix-blend-mode:multiply"/></g><rect x="153.22" y="168.2" width="9.06" height="104.28" fill="#f98020"/><path d="M164.47,249.47c0,2.19-.77,4-1.72,4s-1.72-1.78-1.72-4,.77-4,1.72-4S164.47,247.28,164.47,249.47Z" transform="translate(-5.29 -11.15)" fill="#f96a20"/></g><path d="M72,282c12.08,1.53,23-5.75,23-5.75S86.22,266.53,74.14,265s-23,5.75-23,5.75S59.89,280.51,72,282Z" transform="translate(-5.29 -11.15)" fill="#239eb1"/><path d="M76,285.94c10.9-.76,19.21-9.06,19.21-9.06s-9.38-7.07-20.28-6.31-19.21,9.05-19.21,9.05S65.08,286.69,76,285.94Z" transform="translate(-5.29 -11.15)" fill="#20b2c3"/><path d="M84.27,287.42c6.77-2.91,10.21-10,10.21-10s-7.54-2.42-14.31.49-10.21,10-10.21,10S77.5,290.32,84.27,287.42Z" transform="translate(-5.29 -11.15)" fill="#1bc9d0"/><rect x="75.95" y="223.88" width="81.52" height="48.86" rx="6.52" transform="translate(-104.3 67.62) rotate(-26.66)" fill="#ff9e20"/><path d="M140.56,210c-.4,1.32-.16,2.57-1.63,3.31L75.4,245.24c-1.49.75-2.26-.33-3.57-.81l19.23-40.69A3.21,3.21,0,0,1,94.51,202Z" transform="translate(-5.29 -11.15)" fill="#ff9e20"/><path d="M141.61,210.29a4.91,4.91,0,0,0-4.1.24L74,242.43a5,5,0,0,0-2.67,3.2l45.3,9a3.21,3.21,0,0,0,3.49-1.7Z" transform="translate(-5.29 -11.15)" fill="#df6002"/><g clip-path="url(#clip-path-3)"><path d="M79.22,195.65h55.23a6.38,6.38,0,0,1,6.38,6.38v59.67a0,0,0,0,1,0,0h-68a0,0,0,0,1,0,0V202a6.38,6.38,0,0,1,6.38-6.38Z" transform="translate(-96.54 61.1) rotate(-26.66)" fill="#fff"/><path d="M114.08,231.69,84,246.8a1.21,1.21,0,0,1-1.63-.54h0a1.22,1.22,0,0,1,.54-1.63L113,229.52a1.21,1.21,0,0,1,1.63.54h0A1.21,1.21,0,0,1,114.08,231.69Z" transform="translate(-5.29 -11.15)" fill="#d8e4ff"/><path d="M117,237.4l-30.1,15.11a1.21,1.21,0,0,1-1.63-.54h0a1.22,1.22,0,0,1,.54-1.63l30.1-15.11a1.23,1.23,0,0,1,1.63.54h0A1.22,1.22,0,0,1,117,237.4Z" transform="translate(-5.29 -11.15)" fill="#d8e4ff"/><path d="M119.81,243.12,89.72,258.23a1.22,1.22,0,0,1-1.63-.54h0a1.21,1.21,0,0,1,.54-1.63l30.1-15.12a1.23,1.23,0,0,1,1.63.55h0A1.23,1.23,0,0,1,119.81,243.12Z" transform="translate(-5.29 -11.15)" fill="#d8e4ff"/><path d="M111.21,226l-30.1,15.11a1.22,1.22,0,0,1-1.63-.54h0a1.22,1.22,0,0,1,.54-1.63l30.1-15.11a1.21,1.21,0,0,1,1.63.54h0A1.21,1.21,0,0,1,111.21,226Z" transform="translate(-5.29 -11.15)" fill="#d8e4ff"/><polyline points="72.67 235.8 109.2 239.69 113.01 237.77 133.55 204.64 116.92 237.93 106.94 245.25 98.11 244.93" fill="#d8e4ff" opacity="0.46" style="mix-blend-mode:multiply"/></g><path d="M162.08,251.06a5.23,5.23,0,0,1-2.64,3.14L95.91,286.09a5.18,5.18,0,0,1-4.16.22l22.73-35.47a4.3,4.3,0,0,1,3.8-2Z" transform="translate(-5.29 -11.15)" fill="#ffba1f"/><path d="M96,205.8,69.9,218.91a1.15,1.15,0,0,1-1.54-.51h0a1.16,1.16,0,0,1,.51-1.54L95,203.75a1.16,1.16,0,0,1,1.54.51h0A1.15,1.15,0,0,1,96,205.8Z" transform="translate(-5.29 -11.15)" fill="#d8e4ff"/><path d="M102.92,209.47l-30.1,15.11a1.22,1.22,0,0,1-1.63-.54h0a1.21,1.21,0,0,1,.54-1.63l30.1-15.11a1.21,1.21,0,0,1,1.63.54h0A1.22,1.22,0,0,1,102.92,209.47Z" transform="translate(-5.29 -11.15)" fill="#d8e4ff"/><path d="M108.34,220.27l-30.1,15.11a1.23,1.23,0,0,1-1.63-.54h0a1.22,1.22,0,0,1,.54-1.63l30.1-15.11a1.21,1.21,0,0,1,1.63.54h0A1.22,1.22,0,0,1,108.34,220.27Z" transform="translate(-5.29 -11.15)" fill="#d8e4ff"/><path d="M112.77,204.52l-6.55,3.29a1.21,1.21,0,0,1-1.63-.54h0a1.21,1.21,0,0,1,.54-1.63l6.55-3.29a1.21,1.21,0,0,1,1.63.54h0A1.21,1.21,0,0,1,112.77,204.52Z" transform="translate(-5.29 -11.15)" fill="#d8e4ff"/><path d="M128.7,210.05l-6.56,3.29a1.23,1.23,0,0,1-1.63-.54h0a1.22,1.22,0,0,1,.54-1.63l6.56-3.29a1.22,1.22,0,0,1,1.63.54h0A1.23,1.23,0,0,1,128.7,210.05Z" transform="translate(-5.29 -11.15)" fill="#d8e4ff"/><path d="M131.56,215.76,125,219.05a1.22,1.22,0,0,1-1.63-.54h0a1.22,1.22,0,0,1,.54-1.63l6.55-3.29a1.21,1.21,0,0,1,1.63.54h0A1.21,1.21,0,0,1,131.56,215.76Z" transform="translate(-5.29 -11.15)" fill="#d8e4ff"/><path d="M134.53,221.67,128,225a1.22,1.22,0,0,1-1.63-.54h0a1.21,1.21,0,0,1,.54-1.63l6.55-3.29a1.21,1.21,0,0,1,1.63.54h0A1.22,1.22,0,0,1,134.53,221.67Z" transform="translate(-5.29 -11.15)" fill="#d8e4ff"/><path d="M96.61,218.18l-6.55,3.29a1.22,1.22,0,0,1-1.63-.54h0A1.22,1.22,0,0,1,89,219.3L95.53,216a1.22,1.22,0,0,1,1.63.54h0A1.23,1.23,0,0,1,96.61,218.18Z" transform="translate(-5.29 -11.15)" fill="#d8e4ff"/><path d="M85.75,223.63,75.05,229a1.22,1.22,0,0,1-1.63-.54h0a1.21,1.21,0,0,1,.54-1.63l10.7-5.38a1.22,1.22,0,0,1,1.63.54h0A1.21,1.21,0,0,1,85.75,223.63Z" transform="translate(-5.29 -11.15)" fill="#d8e4ff"/><path d="M123.61,199.08l-6.55,3.29a1.22,1.22,0,0,1-1.63-.54h0a1.21,1.21,0,0,1,.54-1.63l6.55-3.29a1.21,1.21,0,0,1,1.63.54h0A1.22,1.22,0,0,1,123.61,199.08Z" transform="translate(-5.29 -11.15)" fill="#d8e4ff"/><path d="M125.84,203.51l-24.71,12.4a1.21,1.21,0,0,1-1.63-.54h0a1.22,1.22,0,0,1,.54-1.63l24.71-12.4a1.22,1.22,0,0,1,1.63.54h0A1.22,1.22,0,0,1,125.84,203.51Z" transform="translate(-5.29 -11.15)" fill="#d8e4ff"/><path d="M89.32,117.23a5.75,5.75,0,0,0-4.45,2l.07,0a6.2,6.2,0,0,0-1.7,4.26V164l42.25-38.12h0l.07-.06a6,6,0,0,0,2-4.3h0a6.08,6.08,0,0,0-1.54-4.25H89.32Z" transform="translate(-5.29 -11.15)" fill="#ff9e20" opacity="0.28" style="mix-blend-mode:multiply"/><rect x="28.3" y="98.18" width="94.05" height="56.37" rx="7.45" transform="translate(-64.64 56.03) rotate(-35.48)" fill="#ff9e20"/><path d="M23.14,133.15l55.93.65L98.41,79.07a6,6,0,0,0-6,.55L25.57,127.21A6,6,0,0,0,23.14,133.15Z" transform="translate(-5.29 -11.15)" fill="#ff8920"/><path d="M127.54,121.48a6,6,0,0,1-2.46,4l-66.79,47.6a6,6,0,0,1-4.7,1L74.38,127Z" transform="translate(-5.29 -11.15)" fill="#ffba1f"/><path d="M97,78.61a5.67,5.67,0,0,0-4.63,1L25.57,127.21a5.75,5.75,0,0,0-2.47,4.13l53.24,2.28A3.7,3.7,0,0,0,80,131.06Z" transform="translate(-5.29 -11.15)" fill="#ffd837"/><polygon points="56.91 76.84 61.9 77.8 56.91 79.24 55.7 84 54.38 79.24 49.51 77.8 54.38 76.84 55.7 71.6 56.91 76.84" fill="#ffd837"/><polygon points="145.12 186.29 150.12 187.24 145.12 188.69 143.92 193.44 142.6 188.69 137.72 187.24 142.6 186.29 143.92 181.04 145.12 186.29" fill="#ffd837"/><polygon points="35.19 99.37 37.54 99.82 35.19 100.5 34.63 102.73 34.01 100.5 31.72 99.82 34.01 99.37 34.63 96.9 35.19 99.37" fill="#ffd837"/><polygon points="136.89 180.27 139.24 180.72 136.89 181.4 136.32 183.63 135.7 181.4 133.41 180.72 135.7 180.27 136.32 177.8 136.89 180.27" fill="#ffd837"/><polygon points="147.4 177.35 149.75 177.8 147.4 178.48 146.83 180.72 146.21 178.48 143.92 177.8 146.21 177.35 146.83 174.89 147.4 177.35" fill="#ffd837"/><polygon points="3.48 97.53 5.83 97.98 3.48 98.66 2.91 100.89 2.29 98.66 0 97.98 2.29 97.53 2.91 95.06 3.48 97.53" fill="#ffd837"/><polygon points="38.18 83.79 40.58 84.24 38.18 84.94 37.6 87.22 36.97 84.94 34.63 84.24 36.97 83.79 37.6 81.27 38.18 83.79" fill="#ff9e20"/><polygon points="29.43 155.32 31.82 155.77 29.43 156.47 28.85 158.75 28.21 156.47 25.87 155.77 28.21 155.32 28.85 152.8 29.43 155.32" fill="#ff9e20"/><polygon points="22.1 141.61 27.42 142.63 22.1 144.17 20.83 149.22 19.42 144.17 14.23 142.63 19.42 141.61 20.83 136.03 22.1 141.61" fill="#ff9e20"/><polygon points="18.54 131.86 19.69 132.07 18.54 132.41 18.27 133.49 17.96 132.41 16.85 132.07 17.96 131.86 18.27 130.66 18.54 131.86" fill="#ffd837"/><polygon points="26.17 105.84 27.42 106.08 26.17 106.44 25.87 107.63 25.54 106.44 24.33 106.08 25.54 105.84 25.87 104.53 26.17 105.84" fill="#ff9e20"/><polygon points="159.74 3.79 194.49 15.58 185.9 31 159.74 3.79" fill="#259bff"/><path d="M165,14.94l40.18,6.79s10.45-10.33,10-10.57S165,14.94,165,14.94Z" transform="translate(-5.29 -11.15)" fill="#259bff"/><polygon points="199.92 10.58 201.85 28.28 194.49 15.58 159.74 3.79 199.92 10.58" fill="#2a70d7"/><polygon points="201.85 28.28 190.83 22.15 194.49 15.58 201.85 28.28" fill="#0c307f"/><polygon points="264.11 161.03 235.92 176.63 245.74 188.61 264.11 161.03" fill="#ffba1f"/><path d="M269.39,172.18,235.74,184.3s-10.64-7.3-10.29-7.57S269.39,172.18,269.39,172.18Z" transform="translate(-5.29 -11.15)" fill="#ffba1f"/><polygon points="230.45 173.15 231.53 188.75 235.92 176.63 264.11 161.03 230.45 173.15" fill="#ff9220"/><polygon points="231.53 188.75 240.11 181.73 235.92 176.63 231.53 188.75" fill="#cc4a00"/><path d="M213.33,42.15s.24.26.7.71" transform="translate(-5.29 -11.15)" fill="none" stroke="#0c307f" stroke-miterlimit="10" stroke-width="0.75"/><path d="M215.48,44.21c6,5.27,23.48,17.59,41,0,19.51-19.6-22-27.77-7,5,14.81,32.39,40,37.21,11.42,80.51" transform="translate(-5.29 -11.15)" fill="none" stroke="#0c307f" stroke-miterlimit="10" stroke-width="0.75" stroke-dasharray="1.99 1.99"/><path d="M260.33,130.55l-.56.83" transform="translate(-5.29 -11.15)" fill="none" stroke="#0c307f" stroke-miterlimit="10" stroke-width="0.75"/><path d="M232.74,199.9s-18.66-3.15-23.09,21.36c-3.05,16.86-16.94,29-35.12,19.29-21.81-11.62-17.41-34.51-40.82-40.65" transform="translate(-5.29 -11.15)" fill="none" stroke="#ffba1f" stroke-miterlimit="10" stroke-width="0.75" stroke-dasharray="2"/></g></g></svg>